<?xml version="1.0" standalone="no"?>
<!DOCTYPE svg PUBLIC "-//W3C//DTD SVG 20010904//EN"
 "http://www.w3.org/TR/2001/REC-SVG-20010904/DTD/svg10.dtd">
<svg version="1.0" xmlns="http://www.w3.org/2000/svg"
 width="1280.000000pt" height="1110.000000pt" viewBox="0 0 1280.000000 1110.000000"
 preserveAspectRatio="xMidYMid meet">
<metadata>
Created by potrace 1.15, written by Peter Selinger 2001-2017
</metadata>
<g transform="translate(0.000000,1110.000000) scale(0.100000,-0.100000)"
fill="#000000" stroke="none">
<path d="M5665 11089 c-400 -14 -841 -57 -1150 -114 -742 -135 -1553 -477
-2245 -946 -558 -379 -903 -752 -1140 -1234 -297 -603 -322 -1206 -75 -1828
25 -63 45 -127 45 -141 0 -14 -10 -55 -22 -92 -38 -118 -134 -196 -257 -211
-65 -7 -150 13 -390 97 -300 104 -369 111 -406 41 -50 -97 -1 -325 90 -415 65
-65 201 -106 353 -106 l76 0 -83 -57 c-206 -141 -213 -270 -20 -390 33 -20 59
-38 59 -41 0 -3 -98 -136 -219 -296 l-219 -291 16 -157 15 -157 151 6 c146 6
325 -6 446 -28 100 -19 310 -72 310 -79 0 -4 -17 -12 -38 -18 -65 -20 -234
-107 -298 -154 -122 -91 -179 -188 -178 -303 2 -140 79 -271 263 -447 l118
-113 -5 -181 c-7 -266 26 -528 93 -752 38 -126 150 -405 197 -492 108 -200
263 -352 613 -601 625 -446 1328 -832 1893 -1040 410 -152 957 -320 1272 -393
636 -146 1177 -184 1770 -125 970 96 1987 329 2665 611 414 172 753 395 1040
683 400 403 631 872 720 1465 9 58 19 108 23 111 4 4 90 77 192 163 197 167
283 260 418 451 145 204 218 349 247 492 33 158 -18 271 -150 336 -62 31 -165
56 -255 64 -37 3 -73 9 -79 12 -8 5 -8 38 0 117 18 168 3 687 -26 932 l-5 42
39 0 c84 0 307 -57 393 -101 20 -10 85 -57 144 -104 178 -143 228 -158 333
-106 191 97 360 309 391 490 39 234 -194 861 -430 1155 -202 250 -469 424
-786 511 l-61 17 14 86 c50 309 27 659 -62 964 -68 238 -219 594 -328 779
-193 324 -485 594 -947 874 -723 439 -1547 753 -2340 894 -590 104 -1378 148
-2185 120z"/>
</g>
</svg>
