<?xml version="1.0" standalone="no"?>
<!DOCTYPE svg PUBLIC "-//W3C//DTD SVG 20010904//EN"
 "http://www.w3.org/TR/2001/REC-SVG-20010904/DTD/svg10.dtd">
<svg version="1.0" xmlns="http://www.w3.org/2000/svg"
 width="1280.000000pt" height="987.000000pt" viewBox="0 0 1280.000000 987.000000"
 preserveAspectRatio="xMidYMid meet">
<metadata>
Created by potrace 1.15, written by Peter Selinger 2001-2017
</metadata>
<g transform="translate(0.000000,987.000000) scale(0.100000,-0.100000)"
fill="#000000" stroke="none">
<path d="M8573 9859 c-44 -44 24 -148 249 -385 57 -59 96 -103 88 -98 -8 5
-51 33 -95 62 -110 74 -295 165 -318 157 -9 -4 -17 -17 -17 -30 0 -30 68 -91
304 -277 212 -166 360 -288 352 -288 -4 0 -146 83 -316 185 -366 219 -453 264
-477 249 -9 -6 -19 -16 -21 -23 -4 -12 104 -124 228 -236 36 -32 52 -50 35
-39 -16 10 -68 42 -115 72 -120 76 -178 104 -208 100 -41 -5 -40 -39 2 -97 37
-50 414 -424 577 -572 184 -167 276 -212 563 -270 82 -16 161 -36 175 -44 44
-23 321 -277 696 -637 l120 -115 -41 -59 c-191 -277 -305 -575 -308 -811 l-1
-102 -40 -29 c-46 -33 -90 -85 -166 -197 l-54 -80 0 -110 c0 -127 17 -199 51
-222 l23 -15 -66 -131 c-74 -148 -238 -445 -257 -465 -9 -10 -28 11 -89 101
-408 600 -920 955 -1538 1067 -132 23 -384 44 -454 37 -72 -7 -119 -34 -195
-112 -66 -67 -104 -96 -151 -114 -24 -9 -18 7 70 182 53 106 135 273 182 372
131 273 172 305 317 245 454 -190 661 -246 943 -257 248 -10 430 34 588 141
348 237 347 733 -3 1124 -136 153 -233 218 -406 276 -199 66 -415 91 -915 106
l-300 9 -106 35 c-186 62 -313 80 -559 80 -232 1 -298 -7 -498 -55 -319 -78
-629 -233 -865 -436 -149 -127 -176 -137 -397 -153 -242 -17 -328 -35 -510
-107 -155 -61 -362 -167 -494 -253 -385 -251 -588 -534 -589 -820 0 -242 153
-351 518 -367 113 -5 140 -3 208 16 164 45 280 121 515 340 90 83 176 158 192
166 119 62 186 -56 205 -362 4 -61 4 -150 0 -196 l-7 -84 -71 -12 c-210 -35
-500 -173 -751 -359 -349 -258 -606 -554 -677 -777 -46 -148 -107 -238 -213
-321 -70 -55 -204 -129 -323 -177 l-61 -25 -65 97 c-88 132 -186 256 -303 386
-55 61 -146 178 -203 260 -56 83 -111 162 -123 176 l-20 27 29 43 c56 81 73
125 73 184 0 94 -60 239 -133 322 -32 36 -94 73 -124 73 -12 0 8 26 59 78 119
121 140 185 99 305 -41 117 -83 168 -191 230 -99 58 -127 25 451 527 282 245
616 530 743 634 469 384 687 599 761 751 24 48 27 64 23 118 -19 231 -234 298
-558 173 -425 -164 -1019 -620 -1127 -866 -14 -30 -64 -174 -112 -320 -48
-146 -100 -291 -115 -322 -37 -78 -106 -168 -171 -223 l-53 -46 -79 79 c-140
140 -324 212 -558 215 -114 2 -122 1 -166 -25 -57 -34 -89 -80 -135 -194 -59
-148 -83 -174 -159 -174 -19 0 -56 -5 -84 -11 -75 -16 -113 -56 -164 -174
l-42 -100 -47 -6 c-66 -10 -113 -35 -157 -85 -62 -70 -76 -131 -76 -320 l0
-160 33 -63 c18 -35 30 -67 25 -71 -4 -4 -55 -48 -113 -97 -200 -171 -308
-303 -317 -385 -4 -38 1 -51 45 -118 28 -41 69 -93 91 -114 34 -34 48 -40 93
-44 46 -3 62 1 123 33 115 61 251 156 400 278 120 98 143 113 162 106 68 -26
149 -30 273 -15 69 9 147 20 173 25 43 8 47 7 42 -8 -16 -37 -26 -182 -20
-271 12 -165 54 -212 245 -271 58 -18 97 -24 171 -23 l97 0 12 -40 c55 -183
238 -443 501 -711 l147 -150 -50 -55 c-99 -109 -165 -249 -194 -408 -21 -117
-21 -334 1 -436 9 -43 14 -80 12 -82 -2 -2 -60 -11 -128 -19 -163 -21 -238
-39 -318 -77 -123 -58 -210 -177 -246 -333 -33 -139 -7 -171 138 -169 51 1
112 7 136 13 23 7 45 10 48 8 12 -12 -116 -60 -247 -92 -173 -42 -236 -71
-290 -132 -48 -55 -64 -105 -64 -198 2 -158 95 -232 261 -206 87 13 165 38
306 98 129 54 144 62 213 120 l51 43 -14 -53 c-22 -87 0 -132 70 -144 51 -8
160 28 300 98 66 32 120 59 122 59 1 0 -2 -23 -7 -51 -8 -47 -17 -58 -127
-167 -130 -128 -203 -231 -233 -325 -22 -72 -23 -98 -2 -167 35 -118 191 -226
436 -302 80 -24 108 -37 108 -49 0 -9 -29 -35 -65 -59 -83 -54 -156 -134 -194
-213 -67 -136 -96 -362 -51 -402 28 -26 105 -16 184 24 87 45 132 84 162 142
13 27 26 49 29 49 3 0 19 -28 36 -62 156 -311 515 -541 1055 -676 686 -171
1656 -196 2989 -77 371 34 1148 120 1305 145 236 38 560 129 795 222 326 129
608 316 707 469 17 27 33 47 35 45 3 -2 -7 -42 -22 -88 -79 -249 -73 -400 22
-555 51 -84 174 -131 217 -84 24 26 46 161 49 300 2 107 0 120 -24 166 -45 89
-123 225 -166 290 l-42 63 88 288 c49 159 93 290 98 291 12 4 333 -129 388
-161 95 -56 153 -153 220 -371 43 -138 86 -227 124 -252 39 -26 128 -22 188 8
85 44 173 209 176 329 1 80 -67 183 -219 331 -115 111 -177 151 -294 189 -136
44 -218 48 -355 17 -61 -14 -135 -35 -165 -46 -29 -11 -56 -19 -58 -17 -2 3
24 94 57 203 34 109 61 213 61 230 0 17 -12 54 -27 82 -14 28 -23 54 -20 58 4
3 53 -14 109 -37 124 -51 225 -65 258 -35 42 38 17 82 -113 193 -56 48 -123
110 -149 138 -26 28 -86 72 -132 100 -47 27 -86 52 -86 55 0 7 34 3 194 -22
178 -29 318 -24 399 13 76 36 76 54 -1 129 l-59 57 106 4 c117 5 171 24 211
75 20 25 22 36 17 98 -24 305 -333 594 -712 665 l-60 12 101 101 c111 112 152
181 174 292 18 94 25 379 10 476 -24 168 -92 331 -181 433 l-36 41 46 85 c25
47 82 162 126 255 43 94 100 208 126 255 l47 85 95 -3 c80 -3 102 -1 146 19
67 28 129 99 182 204 53 106 68 193 47 260 -16 48 -16 49 12 99 15 28 40 84
55 124 15 39 29 72 31 72 3 0 17 -8 31 -17 22 -14 48 -18 128 -18 97 1 159 10
258 42 l47 15 98 -79 c53 -43 130 -106 170 -141 259 -223 715 -407 896 -361
140 35 108 158 -93 356 -55 55 -170 149 -498 410 l-42 34 78 78 c228 228 256
406 93 580 -43 46 -52 51 -91 51 -42 0 -127 -35 -162 -66 -27 -24 -27 -16 0
38 42 85 28 202 -32 266 -47 51 -95 67 -197 66 -171 -1 -275 -49 -419 -193
-46 -46 -81 -75 -77 -65 75 182 103 309 86 390 -15 73 -62 126 -133 151 -76
27 -222 24 -307 -6 -78 -27 -181 -86 -256 -147 l-54 -44 -88 58 c-48 32 -138
89 -200 126 -273 164 -403 311 -559 636 -175 362 -205 420 -271 520 -138 207
-217 283 -527 505 -242 172 -362 235 -392 204z"/>
<path d="M10795 2571 c-58 -27 -119 -94 -164 -180 -64 -125 -69 -115 62 -129
224 -23 392 -104 449 -215 24 -48 22 -97 -11 -250 -34 -156 -8 -212 98 -212
80 1 141 27 194 84 81 87 146 250 133 333 -8 47 -90 214 -157 319 -52 80 -144
175 -196 202 -118 61 -326 86 -408 48z"/>
<path d="M2301 1278 c-105 -15 -215 -82 -354 -217 -122 -118 -157 -193 -123
-259 46 -89 135 -65 241 67 30 37 81 83 127 114 42 29 131 105 197 169 l121
117 -32 5 c-78 12 -117 13 -177 4z"/>
</g>
</svg>
