<?xml version="1.0" encoding="utf-8"?>
<!-- Svg Vector Icons : http://www.onlinewebfonts.com/icon -->
<!DOCTYPE svg PUBLIC "-//W3C//DTD SVG 1.1//EN" "http://www.w3.org/Graphics/SVG/1.1/DTD/svg11.dtd">
<svg version="1.1" xmlns="http://www.w3.org/2000/svg" xmlns:xlink="http://www.w3.org/1999/xlink" x="0px" y="0px" viewBox="0 0 256 256" enable-background="new 0 0 256 256" xml:space="preserve">
<metadata> Svg Vector Icons : http://www.onlinewebfonts.com/icon </metadata>
<g><g><g><path fill="#000000" d="M110.4,21.9C87.2,24.8,66,33.1,49.8,45.3c-17.1,13.1-27.7,30.2-30,48.3c-1.1,8.8-0.5,11.7,2.8,13.7c1.7,1,2.3,1,104.8,1c113.9,0,105.1,0.3,107.2-3.3c1.3-2.1,1.3-7.1,0.3-13.6c-2.5-14.6-9-26.5-20.7-38.2c-16.4-16.4-37.9-26.5-65.7-31C141.5,21.2,118.2,20.9,110.4,21.9z M138.6,35.6c20.8,1.9,38.5,7.7,53.7,17.9c7,4.6,15.9,13.3,19.8,19.1c4.4,6.7,8.6,16.8,8.6,20.8v1.1h-93.3H34.2l0.4-2.2c1.8-10.4,9.8-23.6,19.8-32.2C75.1,42,107.2,32.7,138.6,35.6z"/><path fill="#000000" d="M78.1,60.3c-1.4,1.3-1.7,1.9-1.7,3.9s0.3,2.6,1.7,3.9c1.2,1.1,2.2,1.5,3.7,1.5c1.5,0,2.5-0.4,3.7-1.5c1.4-1.3,1.7-1.9,1.7-3.9s-0.3-2.6-1.7-3.9c-1.2-1.1-2.2-1.5-3.7-1.5C80.2,58.8,79.3,59.2,78.1,60.3z"/><path fill="#000000" d="M171.1,60.3c-1.4,1.3-1.7,1.9-1.7,3.9s0.3,2.6,1.7,3.9c1.2,1.1,2.2,1.5,3.7,1.5c1.5,0,2.5-0.4,3.7-1.5c1.4-1.3,1.7-1.9,1.7-3.9s-0.3-2.6-1.7-3.9c-1.2-1.1-2.2-1.5-3.7-1.5C173.2,58.8,172.3,59.2,171.1,60.3z"/><path fill="#000000" d="M124.6,65.5c-1.4,1.3-1.7,1.9-1.7,3.9s0.3,2.6,1.7,3.9c1.2,1.1,2.2,1.5,3.7,1.5c1.5,0,2.5-0.4,3.7-1.5c1.4-1.3,1.7-1.9,1.7-3.9s-0.3-2.6-1.7-3.9c-1.2-1.1-2.2-1.5-3.7-1.5C126.7,64,125.8,64.4,124.6,65.5z"/><path fill="#000000" d="M43.1,113.1c-7.4,0.7-14.7,4-19.9,9c-1.8,1.7-3.4,3.7-3.6,4.5c-0.9,3.7,1.4,7.5,5.1,8.5c2.7,0.7,5-0.1,8-2.6c5.5-4.8,12.6-6.6,19.3-4.9c4.2,1.1,6.7,2.5,11,6.4c6.9,6.3,14.1,9.3,22.9,9.8c10.4,0.5,18.7-2.7,27.2-10.5c6.1-5.6,13.5-7.6,20.6-5.5c3.9,1.1,6.6,2.8,11,6.7c4.4,4,11.3,7.6,16.6,8.7c11.3,2.4,22.9-0.9,31.7-8.8c4.9-4.4,9-6.4,14.2-6.8c5.3-0.4,10,1,14.6,4.5c4.4,3.3,5,3.6,7.3,3.6c5.2,0,8.5-5.7,6.1-10.3c-1.9-3.7-11-9.3-17.8-11.2c-4.4-1.1-12.6-1.2-17-0.1c-5.4,1.4-11.3,4.6-15.5,8.4c-2.1,2-5.3,4.2-7.2,5.1c-3.1,1.5-3.8,1.6-8.8,1.6c-5,0-5.7-0.1-8.8-1.6c-1.9-0.9-5-3-6.9-4.8c-6.5-5.9-13-8.9-20.9-9.8c-10.5-1.2-20,2-28.4,9.5c-5.4,4.8-9.3,6.6-15.1,6.9c-7.2,0.4-10.2-0.9-18.3-7.8C62.4,115.1,53.1,112.2,43.1,113.1z"/><path fill="#000000" d="M13.4,150.7c-0.8,0.5-1.9,1.7-2.4,2.4c-0.9,1.4-1,2.7-1,19.1s0,17.7,1,19.1c1.5,2.3,3.6,3.4,6.4,3.4c2.3,0,2.5,0.1,2.7,1.4c0.2,0.8,1,3.7,1.9,6.5c4.6,14.6,16.2,25.9,31.7,30.7l4.6,1.4h69c66,0,69.1,0,72.6-1c17.1-4.6,30.2-17.7,34.5-34.6l1.1-4.5h3.3c2.9,0,3.4-0.2,5.2-1.8l1.9-1.8l0.2-18c0.2-19.4,0.1-19.9-2.6-22.2l-1.6-1.3H128.4C18.1,149.7,14.9,149.8,13.4,150.7z M232,172.1l-0.2,8.4H128H24.2l-0.2-7.7c-0.1-4.2,0-8,0.1-8.4c0.2-0.6,19.6-0.7,104.1-0.7h103.8L232,172.1z M220.7,195.2c0,1.4-2.9,7.8-5,10.9c-3,4.5-7.1,8.2-12.1,10.8c-8,4.1-3,3.9-76.1,3.9c-60.8,0-65.3-0.1-68.4-0.9c-10.2-2.8-18-9.2-22.3-18.2c-0.8-1.8-1.7-4-1.8-5.1l-0.3-1.9h93.1C187.9,194.7,220.7,194.8,220.7,195.2z"/></g></g></g>
</svg>